Coordinates
version=1
nRows=13
nColumns=36
inDegrees=yes

Units are S.I. units (second, meters, Newtons, ...)
If the header above contains a line with 'inDegrees', this indicates whether rotational values are in degrees (yes) or radians (no).

endheader
time	pelvis_tilt	pelvis_list	pelvis_rotation	pelvis_tx	pelvis_ty	pelvis_tz	hip_flexion_r	hip_adduction_r	hip_rotation_r	knee_angle_r	knee_angle_r_beta	ankle_angle_r	subtalar_angle_r	mtp_angle_r	hip_flexion_l	hip_adduction_l	hip_rotation_l	knee_angle_l	knee_angle_l_beta	ankle_angle_l	subtalar_angle_l	mtp_angle_l	lumbar_extension	lumbar_bending	lumbar_rotation	arm_flex_r	arm_add_r	arm_rot_r	elbow_flex_r	pro_sup_r	arm_flex_l	arm_add_l	arm_rot_l	elbow_flex_l	pro_sup_l
      3.37000000	    -31.83653952	     -2.01640277	     -0.56565449	     -0.33312567	      0.74615263	     -0.65246600	     88.46281731	    -17.68571477	     -9.53045069	     83.06134194	      1.44969390	     30.81181363	      3.33605158	     -7.49999987	     91.75319680	    -22.61252504	     -4.93488961	     83.86327871	      1.46369034	     26.50489455	     17.29587702	     -7.49999987	    -21.49558295	      2.49351729	      2.64312388	     80.34672560	    -10.98166170	     17.61000624	    114.12112594	    103.72104009	     79.21106858	     -5.19133738	     25.97990777	    110.90523895	    107.78164018
      3.38000000	    -31.93425676	     -2.05828642	     -0.50612954	     -0.33443953	      0.74207154	     -0.65321036	     89.11479428	    -17.84425508	     -9.36423814	     83.73217773	      1.46140219	     30.91115744	      3.31593835	     -7.49999987	     92.47209746	    -22.48916441	     -4.64946401	     84.52818121	      1.47529507	     26.61161287	     17.16911867	     -7.49999987	    -21.96772241	      2.63129756	      2.61239086	     81.20898853	    -10.94245676	     17.69589472	    113.98229276	    103.70927468	     79.88773845	     -5.09480994	     25.87744763	    110.78790316	    107.78749896
      3.39000000	    -32.04347902	     -2.09028577	     -0.49482907	     -0.33574442	      0.73806160	     -0.65378515	     89.77550193	    -17.92564596	     -9.17750382	     84.36479864	      1.47244351	     31.00954071	      3.29384210	     -7.49999987	     93.17955228	    -22.44446207	     -4.40900543	     85.17239404	      1.48653871	     26.71171437	     17.05146676	     -7.49999987	    -22.43625884	      2.73683208	      2.62877431	     82.04655031	    -10.89400444	     17.77943871	    113.85167145	    103.69705555	     80.54302312	     -4.98863598	     25.76717791	    110.67661036	    107.78937982
      3.40000000	    -32.15280987	     -2.15705539	     -0.58649134	     -0.33699485	      0.73402179	     -0.65401476	     90.41889761	    -17.89569963	     -9.04542076	     85.01030581	      1.48370973	     31.13370172	      3.29039757	     -7.49999987	     93.92953960	    -22.54693236	     -4.11025835	     85.85680779	      1.49848398	     26.83643121	     16.87597174	     -7.49999987	    -22.86457370	      2.84207900	      2.75645779	     82.89199711	    -10.93519054	     18.05962586	    113.59254190	    103.67830743	     81.16946064	     -4.94368557	     25.68369177	    110.50747430	    107.80626829
      3.41000000	    -32.30216620	     -2.17442977	     -0.65376638	     -0.33823761	      0.73010309	     -0.65433281	     91.11327320	    -17.89821214	     -8.88680131	     85.59649930	      1.49394074	     31.21584505	      3.26173148	     -7.49999987	     94.62607623	    -22.59924471	     -3.89197183	     86.45711465	      1.50896131	     26.92366530	     16.80119130	     -7.49999987	    -23.27141330	      2.90405420	      2.83893558	     83.66113047	    -10.85258998	     18.11149629	    113.47426756	    103.66490361	     81.77622744	     -4.81435751	     25.57657554	    110.41301171	    107.81085490
      3.42000000	    -32.46621884	     -2.20954082	     -0.65700320	     -0.33952012	      0.72600531	     -0.65485426	     91.82136907	    -17.99184511	     -8.73764984	     86.21487110	      1.50473336	     31.29337354	      3.23503863	     -7.49999987	     95.39648342	    -22.58370945	     -3.65337216	     87.10124733	      1.52020355	     27.02095526	     16.72882977	     -7.49999987	    -23.62400134	      3.00644348	      2.88354232	     84.42811781	    -10.84227548	     18.22427814	    113.30596607	    103.64881784	     82.36054027	     -4.71031804	     25.47573095	    110.28607811	    107.81549255
      3.43000000	    -32.61529922	     -2.23128844	     -0.63782197	     -0.34074105	      0.72200872	     -0.65540400	     92.50052937	    -18.12347377	     -8.59007741	     86.80478026	      1.51502922	     31.36340424	      3.20902384	     -7.49999987	     96.13468040	    -22.56050332	     -3.45911259	     87.73009145	      1.53117895	     27.10039316	     16.67857819	     -7.49999987	    -23.98399276	      3.11767653	      2.89433535	     85.18607776	    -10.81264857	     18.32280426	    113.15077710	    103.63343923	     82.93964009	     -4.60181586	     25.38102182	    110.17054081	    107.81535435
      3.44000000	    -32.73599671	     -2.25041254	     -0.62005170	     -0.34185374	      0.71813194	     -0.65597428	     93.14132908	    -18.25824930	     -8.43137314	     87.38911004	      1.52522770	     31.43062273	      3.19547887	     -7.49999987	     96.82400899	    -22.54159474	     -3.27426111	     88.34362627	      1.54188715	     27.17439099	     16.63257554	     -7.49999987	    -24.36214340	      3.21126572	      2.89842533	     85.91804317	    -10.79789406	     18.44532507	    112.95859820	    103.61657064	     83.50471075	     -4.49874602	     25.30223882	    110.05505710	    107.81559999
      3.45000000	    -32.86875012	     -2.33401250	     -0.55954701	     -0.34291993	      0.71423644	     -0.65668727	     93.75562233	    -18.46162208	     -8.35372291	     87.98031434	      1.53554616	     31.56098632	      3.34636932	     -7.49999987	     97.54960716	    -22.43942721	     -2.99677832	     88.94502789	      1.55238359	     27.28128415	     16.52495727	     -7.49999987	    -24.68960987	      3.42132756	      2.89793143	     86.73759640	    -10.88414729	     18.92332764	    112.58242180	    103.58134537	     84.00358257	     -4.42857770	     25.21442566	    109.88545529	    107.86664241
      3.46000000	    -33.01158746	     -2.32677780	     -0.54463874	     -0.34399795	      0.71028232	     -0.65713244	     94.43564374	    -18.59296563	     -8.17314454	     88.57208650	      1.54587453	     31.63089554	      3.32586455	     -7.49999987	     98.23184554	    -22.42560523	     -2.85014936	     89.54151944	      1.56279433	     27.35001438	     16.50083292	     -7.49999987	    -25.05064286	      3.44800614	      2.89006935	     87.40023611	    -10.76504142	     18.87276381	    112.51753263	    103.56950597	     84.58347266	     -4.27790853	     25.11382717	    109.85211930	    107.86820485
      3.47000000	    -33.15794698	     -2.33603258	     -0.52001525	     -0.34517419	      0.70624736	     -0.65746528	     95.13451099	    -18.70300125	     -7.98534862	     89.18732864	      1.55661254	     31.70030312	      3.30901988	     -7.49999987	     98.93611628	    -22.38930097	     -2.66465890	     90.12246363	      1.57293372	     27.42981097	     16.46854482	     -7.49999987	    -25.37885450	      3.50632694	      2.88711038	     88.07089705	    -10.67911804	     18.89076408	    112.39166711	    103.55521985	     85.17111561	     -4.19658431	     25.04416511	    109.76954371	    107.86731946
      3.48000000	    -33.31370659	     -2.36120452	     -0.51933489	     -0.34632272	      0.70225278	     -0.65776739	     95.81858449	    -18.77794580	     -7.82080169	     89.77116660	      1.56680243	     31.76586231	      3.29121537	     -7.49999987	     99.65984864	    -22.37863207	     -2.46525161	     90.70526929	      1.58310560	     27.51285101	     16.42639352	     -7.49999987	    -25.68553112	      3.55242572	      2.88543754	     88.73289819	    -10.59281105	     18.93918635	    112.22699213	    103.53705448	     85.75937575	     -4.10118682	     25.02499403	    109.67347675	    107.86909731
      3.49000000	    -33.50090570	     -2.41156454	     -0.53118581	     -0.34749113	      0.69810571	     -0.65811218	     96.53599766	    -18.83877559	     -7.66890592	     90.36196307	      1.57711377	     31.82784989	      3.27039884	     -7.49999987	    100.45464763	    -22.38276742	     -2.23987202	     91.30854059	      1.59363467	     27.59351776	     16.38130115	     -7.49999987	    -25.94257907	      3.61514227	      2.89424615	     89.38977243	    -10.53520713	     18.99287528	    112.06663076	    103.51843795	     86.34119331	     -4.00464074	     25.01342161	    109.58524419	    107.87259646
